<?xml version="1.0" encoding="UTF-8"?>
<svg width="136px" height="136px" viewBox="0 0 136 136" version="1.1" xmlns="http://www.w3.org/2000/svg" xmlns:xlink="http://www.w3.org/1999/xlink">
    <!-- Generator: Sketch 56.2 (81672) - https://sketch.com -->
    <title>暂无数据 -136px@1x</title>
    <desc>Created with Sketch.</desc>
    <defs>
        <linearGradient x1="98.9998236%" y1="50%" x2="0.193264617%" y2="50%" id="linearGradient-1">
            <stop stop-color="#FDFDFD" stop-opacity="0" offset="0%"></stop>
            <stop stop-color="#E1DDDC" offset="99.9023438%"></stop>
        </linearGradient>
        <filter x="-32.3%" y="-27.0%" width="164.5%" height="154.1%" filterUnits="objectBoundingBox" id="filter-2">
            <feOffset dx="0" dy="3" in="SourceAlpha" result="shadowOffsetOuter1"></feOffset>
            <feGaussianBlur stdDeviation="3.5" in="shadowOffsetOuter1" result="shadowBlurOuter1"></feGaussianBlur>
            <feColorMatrix values="0 0 0 0 0.539563314   0 0 0 0 0.566550381   0 0 0 0 0.60266644  0 0 0 0.79963396 0" type="matrix" in="shadowBlurOuter1" result="shadowMatrixOuter1"></feColorMatrix>
            <feMerge>
                <feMergeNode in="shadowMatrixOuter1"></feMergeNode>
                <feMergeNode in="SourceGraphic"></feMergeNode>
            </feMerge>
        </filter>
        <linearGradient x1="100%" y1="50%" x2="0%" y2="50%" id="linearGradient-3">
            <stop stop-color="#FFFFFF" stop-opacity="0" offset="0%"></stop>
            <stop stop-color="#FFFFFF" offset="100%"></stop>
        </linearGradient>
        <linearGradient x1="100%" y1="50%" x2="0%" y2="50%" id="linearGradient-4">
            <stop stop-color="#8A909A" offset="0%"></stop>
            <stop stop-color="#BCC2CB" offset="100%"></stop>
        </linearGradient>
    </defs>
    <g id="暂无数据--136px" stroke="none" stroke-width="1" fill="none" fill-rule="evenodd">
        <g id="Group-2">
            <polygon id="Rectangle" fill="url(#linearGradient-1)" opacity="0.595563616" transform="translate(51.000000, 51.000000) scale(-1, -1) translate(-51.000000, -51.000000) " points="102 0 102 102 0 102"></polygon>
            <rect id="Combined-Shape" stroke="#DBE0E7" stroke-width="0.85" transform="translate(30.600000, 69.700000) rotate(-29.000000) translate(-30.600000, -69.700000) " x="10.625" y="46.325" width="39.95" height="46.75"></rect>
            <circle id="Oval" fill="url(#linearGradient-1)" opacity="0.595563616" cx="116.45" cy="116.45" r="19.55"></circle>
            <rect id="Rectangle" fill="#D9DDE3" opacity="0.601539249" transform="translate(107.739439, 70.627471) scale(-1, 1) rotate(-29.000000) translate(-107.739439, -70.627471) " x="89.0394395" y="46.8274709" width="37.4" height="47.6"></rect>
            <g id="Group" transform="translate(34.000000, 20.400000)">
                <rect id="Combined-Shape" stroke="#BCC2CB" stroke-width="0.85" x="0.425" y="0.425" width="67.15" height="79.05"></rect>
                <rect id="Rectangle" fill="#BCC2CB" opacity="0.601539249" x="3.4" y="3.4" width="61.2" height="73.1"></rect>
                <g id="Group-14" filter="url(#filter-2)" transform="translate(3.400000, 3.400000)" fill="url(#linearGradient-3)">
                    <rect id="Rectangle" x="0" y="0" width="61.2" height="73.1" rx="3.4"></rect>
                </g>
                <path d="M47.2061813,36.5808899 C47.7266247,39.9640958 46.4254082,42.5667445 44.0830891,43.087188 C41.7409859,43.6076314 39.9188943,42.0463011 39.3984509,39.9640958 C38.8780075,37.8821063 39.1383371,35.0193438 40.9602128,31.1154786 C42.7689209,27.2396754 42.5988216,24.9342687 41.3226452,22.1 C41.4595017,22.4773269 41.8610052,24.6730757 35.7549153,30.0743759 C32.3326383,33.102057 29.347482,35.4443762 27.5156767,38.3867918 C27.2078574,38.4711938 26.8849277,38.5186835 26.5501257,38.5186835 C24.5382914,38.5186835 22.9074536,36.8878457 22.9074536,34.8760114 C22.9074536,34.1554638 23.1194301,33.4858598 23.4803515,32.9205171 C21.5531351,35.3586789 20.4,38.4366559 20.4,41.7859715 C20.4,49.6914874 26.8085126,56.1 34.7140285,56.1 C34.7638926,56.1 34.8090078,56.0958986 34.8573609,56.0946034 C34.8705285,56.0948193 34.8839119,56.095251 34.8970795,56.0954669 C42.7177616,55.9968179 49.028057,49.6299667 49.028057,41.7859715 C49.028057,38.0951622 47.6307819,34.7311679 45.3368159,32.1926302 C45.9893669,33.0349239 46.8882165,34.5148742 47.2061813,36.5808899 Z" id="Mask" fill="url(#linearGradient-4)"></path>
            </g>
            <g id="Group-11" transform="translate(68.000000, 66.300000)" stroke="#BCC2CB" stroke-width="0.85">
                <path d="M25.834375,64.6 C20.8581638,54.3751641 16.0568756,48.1945493 11.4305105,46.0581557 C4.4909629,42.8535652 0.761603261,27.8339716 6.09605689,22.2826134 C6.09605689,22.2826134 0.780620164,11.1287889 0.153731839,6.05660678 C-0.473156487,0.984424668 0.948247155,0 2.0558471,0 C2.79424707,0 5.91913488,5.06273216 11.4305105,15.1881965 C13.224928,13.8707423 15.2398384,14.4193286 17.4752416,16.8339551 C17.4752416,16.8339551 21.556311,13.6172229 25.834375,20.7750753 C25.834375,20.7750753 28.516537,19.1684199 31.3920932,24.9728107 C34.2676495,30.7772014 34.516444,41.1219699 36.7179578,44.4740972 C38.1856336,46.7088487 40.6929527,49.9185512 44.2399151,54.1032048 L25.834375,64.6 Z" id="Path-20" fill="#FFFFFF"></path>
                <path d="M5.95477185,21.9558858 C8.71216681,26.7101581 10.0908643,29.9838843 10.0908643,31.7770645" id="Path-21"></path>
                <path d="M11.6389998,15.5742305 C14.6759974,21.2803662 16.4459588,24.3437495 16.948884,24.7643803" id="Path-22"></path>
                <path d="M17.5120382,16.3775681 C20.0988231,21.890415 21.8058007,24.8927846 22.6329709,25.3846769" id="Path-23"></path>
                <path d="M24.5439579,18.7616407 C26.3332958,23.4430495 27.6713271,26.144661 28.5580519,26.8664752" id="Path-24"></path>
            </g>
        </g>
    </g>
</svg>